<?xml version="1.0" encoding="UTF-8" standalone="no"?>
<svg
   xmlns:dc="http://purl.org/dc/elements/1.1/"
   xmlns:cc="http://creativecommons.org/ns#"
   xmlns:rdf="http://www.w3.org/1999/02/22-rdf-syntax-ns#"
   xmlns:svg="http://www.w3.org/2000/svg"
   xmlns="http://www.w3.org/2000/svg"
   viewBox="0 0 265.724 133.33333"
   height="133.33333"
   width="265.724"
   xml:space="preserve"
   id="svg2"
   version="1.1"><metadata
     id="metadata8"><rdf:RDF><cc:Work
         rdf:about=""><dc:format>image/svg+xml</dc:format><dc:type
           rdf:resource="http://purl.org/dc/dcmitype/StillImage" /></cc:Work></rdf:RDF></metadata><defs
     id="defs6"><clipPath
       id="clipPath18"
       clipPathUnits="userSpaceOnUse"><path
         id="path16"
         d="M 0,100 H 199.293 V 0 H 0 Z" /></clipPath></defs><g
     transform="matrix(1.3333333,0,0,-1.3333333,0,133.33333)"
     id="g10"><g
       id="g12"><g
         clip-path="url(#clipPath18)"
         id="g14"><g
           transform="translate(62.3506,69.8896)"
           id="g20"><path
             id="path22"
             style="fill:#000000;fill-opacity:1;fill-rule:evenodd;stroke:none"
             d="M 0,0 C 0.022,-0.028 0.044,-0.057 0.067,-0.085 0.156,-0.2 0.245,-0.315 0.332,-0.432 0.245,-0.315 0.156,-0.2 0.067,-0.085 0.156,-0.2 0.244,-0.315 0.332,-0.432 0.351,-0.458 0.37,-0.483 0.389,-0.508 0.37,-0.483 0.351,-0.457 0.332,-0.432 0.351,-0.457 0.37,-0.483 0.389,-0.508 0.491,-0.646 0.592,-0.786 0.693,-0.925 l 0.034,-0.047 -0.034,0.047 c 0.088,-0.121 0.179,-0.24 0.265,-0.362 l -0.001,-0.011 -0.02,0.029 0.02,-0.029 c 4.038,-5.736 6.416,-12.725 6.416,-20.273 0,-12.48 -6.481,-23.446 -16.26,-29.717 -0.011,0.014 -0.021,0.027 -0.032,0.041 -1.795,-1.258 -3.693,-2.376 -5.692,-3.321 l -6.92,-6.919 v -2.72 h 0.592 c 2.772,0 5.02,-2.247 5.02,-5.02 h -10.655 v 5.02 6.202 c -1.519,-0.18 -3.063,-0.275 -4.631,-0.275 -0.769,0 -1.53,0.03 -2.288,0.074 l -3.281,-3.281 v -2.72 h 0.59 c 2.773,0 5.021,-2.247 5.021,-5.02 h -10.655 v 5.02 7.399 c -5.379,1.524 -10.286,4.172 -14.445,7.682 0,0.002 -5.935,0.298 -5.935,0.298 -0.122,0.535 -0.174,1.096 -0.145,1.671 0.153,3.07 2.534,5.494 5.5,5.802 0.323,13.149 7.243,25.851 19.46,32.882 5.728,3.297 11.943,4.971 18.116,5.173 l -1.322,2.797 c 0,0 -4.606,7.99 -5.409,13.842 -0.123,0.759 -0.189,1.536 -0.189,2.33 0,7.976 6.465,14.441 14.441,14.441 3.022,0 5.89,-0.961 8.209,-2.548 v 0 c 0,0 8.068,-6.346 10.817,-8.512 0.488,0.122 0.985,0.205 1.484,0.236 1.117,0.07 2.273,-0.095 3.297,-0.471 0.967,-0.356 1.843,-0.871 2.601,-1.531 0.776,-0.677 1.434,-1.518 1.905,-2.433 0.463,-0.899 0.751,-1.864 0.858,-2.87 0.016,-0.154 0.029,-0.309 0.036,-0.465 C 17.51,10.54 17.392,9.579 17.11,8.66 16.946,8.127 16.736,7.629 16.484,7.177 16.168,6.612 15.783,6.198 15.481,5.9 15.262,5.684 14.96,5.387 14.574,5.174 14.323,5.036 13.903,4.805 13.395,4.805 13.071,4.806 12.757,4.901 12.488,5.082 12.233,5.253 12.058,5.463 11.924,5.646 10.749,4.798 9.321,4.319 7.872,4.319 H 7.871 C 7.124,4.319 6.383,4.441 5.668,4.682 4.56,5.055 3.558,5.71 2.771,6.574 2.653,6.703 2.542,6.853 2.434,7.017 0.321,6.569 -4.111,5.633 -5.202,5.423 c 1.746,-1.47 3.347,-3.108 4.78,-4.886 0,0 0,0 0,-0.001 0.002,0.002 0.003,0.002 0.005,0.003 C -0.323,0.421 -0.234,0.299 -0.141,0.18 -0.197,0.252 -0.253,0.324 -0.31,0.396 -0.253,0.324 -0.197,0.252 -0.141,0.18 -0.094,0.12 -0.047,0.06 0,0 l -0.141,0.18 z m -0.422,0.536 v 0 C -0.404,0.514 -0.385,0.491 -0.367,0.468 Z M 46.496,-24.809 V 1.582 h -3.415 v 4.709 h 12.16 v -16.61 c 1.501,3.363 3.985,5.847 8.124,5.847 5.847,0 7.866,-3.881 7.866,-9.004 v -11.333 h 3.363 v -4.709 H 60.002 v 4.709 h 2.484 v 10.608 c 0,1.553 -0.311,2.691 -1.035,3.415 -0.518,0.518 -1.243,0.777 -2.225,0.777 -2.226,0 -3.985,-2.225 -3.985,-5.175 v -9.625 h 2.381 v -4.709 H 43.081 v 4.709 z m 41.815,-5.277 c -8.383,0 -13.662,4.916 -13.662,12.574 0,7.503 5.641,13.04 13.196,13.04 8.641,0 12.729,-5.537 12.263,-14.075 H 83.602 c 0.31,-5.537 2.432,-6.986 6.054,-6.986 2.846,0 4.553,1.19 5.485,4.139 h 4.657 c -0.776,-5.07 -4.036,-8.692 -11.487,-8.692 m -0.57,21.784 c -2.38,0 -3.881,-1.604 -4.139,-6.675 h 8.072 c -0.207,5.175 -1.501,6.675 -3.933,6.675 m -39.768,-25.21 v -31.1 h 3.415 V -69.32 H 39.849 v 5.174 c -1.346,-3.312 -3.933,-5.744 -8.228,-5.744 -2.691,0 -4.657,0.983 -6.21,2.536 -2.225,2.225 -3.311,5.951 -3.311,10.246 0,4.553 1.293,8.124 3.467,10.296 1.603,1.605 3.777,2.537 6.312,2.537 3.467,0 5.848,-1.657 7.348,-4.14 v 10.193 h -3.674 v 4.71 z M 35.45,-64.87 c 2.949,0 4.399,3.467 4.399,7.762 0,4.45 -1.294,7.761 -4.399,7.761 -2.95,0 -4.036,-2.742 -4.036,-8.02 0,-4.968 1.035,-7.503 4.036,-7.503 m 29.882,20.595 c 7.865,0 13.609,-5.072 13.609,-12.678 0,-7.607 -6.002,-12.937 -13.661,-12.937 -7.865,0 -13.609,5.072 -13.609,12.678 0,7.607 6.003,12.937 13.661,12.937 m 0.103,-21.786 c 2.95,0 3.985,2.484 3.985,9.004 0,6.572 -1.242,8.953 -4.243,8.953 -2.95,0 -3.985,-2.485 -3.985,-9.004 0,-6.573 1.242,-8.953 4.243,-8.953 m 40.821,32.549 v -31.1 h 3.415 V -69.32 H 98.132 v 5.174 c -1.345,-3.312 -3.933,-5.744 -8.227,-5.744 -2.692,0 -4.657,0.983 -6.21,2.536 -2.225,2.225 -3.312,5.951 -3.312,10.246 0,4.553 1.294,8.124 3.467,10.296 1.604,1.605 3.778,2.537 6.313,2.537 3.467,0 5.848,-1.657 7.348,-4.14 v 10.193 h -3.674 v 4.71 z M 93.733,-64.87 c 2.95,0 4.399,3.467 4.399,7.762 0,4.45 -1.293,7.761 -4.399,7.761 -2.949,0 -4.036,-2.742 -4.036,-8.02 0,-4.968 1.035,-7.503 4.036,-7.503 m 29.6,20.595 c 7.865,0 13.609,-5.072 13.609,-12.678 0,-7.607 -6.002,-12.937 -13.661,-12.937 -7.865,0 -13.61,5.072 -13.61,12.678 0,7.607 6.003,12.937 13.662,12.937 m 0.103,-21.786 c 2.949,0 3.985,2.484 3.985,9.004 0,6.572 -1.242,8.953 -4.243,8.953 -2.95,0 -3.985,-2.485 -3.985,-9.004 0,-6.573 1.242,-8.953 4.243,-8.953 m -87.158,41.356 c 1.327,0 1.947,0.825 2.619,3.13 l 3.518,-0.883 c -1.194,-5.271 -3.694,-7.628 -8.673,-7.628 -5.795,0 -8.589,2.898 -8.589,9.158 V -9.75 h -4.14 v 4.45 h 4.398 v 5.589 l 8.487,1.83 V -5.3 h 7.762 v -4.45 h -7.762 v -11.488 c 0,-2.173 0.776,-3.467 2.38,-3.467 M 15.208,9.244 c 0.473,1.543 0.325,3.267 -0.41,4.696 -0.357,0.694 -0.857,1.331 -1.444,1.844 -0.574,0.5 -1.24,0.891 -1.979,1.163 C 10.606,17.229 9.735,17.352 8.887,17.3 8.065,17.249 7.245,17.03 6.514,16.667 5.835,16.331 5.225,15.87 4.701,15.3 4.129,14.676 3.698,13.938 3.413,13.142 3.344,12.952 2.92,11.999 3.107,11.867 3.805,11.389 4.525,10.979 5.3,10.635 7.193,9.795 9.203,9.182 11.173,8.549 11.824,8.34 12.459,8.051 12.936,7.546 l 0.469,-0.593 c 0.262,-0.147 0.517,0.205 0.678,0.364 0.313,0.308 0.51,0.556 0.663,0.829 0.184,0.33 0.339,0.7 0.462,1.098 M 9.81,6.688 C 9.833,6.701 9.962,6.802 9.973,6.797 9.143,7.12 8.299,7.394 7.459,7.687 6.503,8.02 5.554,8.37 4.618,8.755 4.444,8.826 3.588,9.232 3.588,9.232 3.612,9.22 3.64,9.08 3.65,9.051 3.673,8.987 3.696,8.923 3.721,8.861 3.766,8.744 3.814,8.629 3.867,8.516 3.956,8.327 4.058,8.136 4.192,7.973 4.731,7.319 5.507,6.836 6.305,6.567 6.912,6.363 7.559,6.282 8.198,6.326 8.51,6.347 8.823,6.384 9.129,6.453 9.289,6.489 9.447,6.537 9.6,6.593 9.672,6.62 9.743,6.65 9.81,6.688 m -8.105,7.565 c 0.657,1.653 1.904,3.065 3.463,3.922 -0.222,0.176 -0.444,0.35 -0.666,0.525 -2.739,2.158 -5.478,4.316 -8.219,6.471 l -0.029,0.023 c -0.643,0.507 -1.384,0.666 -2.182,0.761 -2.703,0.319 -5.544,-0.57 -7.538,-2.433 -2.347,-2.193 -3.429,-5.655 -2.749,-8.794 0.68,-3.14 3.098,-5.844 6.142,-6.869 1.875,-0.63 3.912,-0.65 5.868,-0.35 1.955,0.3 3.848,0.908 5.731,1.514 -0.544,1.694 -0.48,3.577 0.179,5.23 m -14.212,-45.276 c 4.324,5.033 3.949,12.511 -0.712,17.097 -0.203,0.2 -0.411,0.397 -0.631,0.586 -0.891,0.765 -1.858,1.382 -2.873,1.856 l -15.736,-18.323 c 0.621,-0.931 1.378,-1.795 2.269,-2.56 3.969,-3.408 9.456,-3.897 13.849,-1.668 1.422,0.722 2.731,1.726 3.834,3.012 m 8.249,52.177 c 0.786,-0.547 1.302,-1.455 1.302,-2.485 0,-1.308 -0.831,-2.419 -1.992,-2.84 -0.323,-0.118 -0.67,-0.185 -1.032,-0.185 -1.671,0 -3.025,1.354 -3.025,3.025 0,1.67 1.354,3.024 3.025,3.024 0.64,0 1.233,-0.2 1.722,-0.539 m -0.54,-4.177 c 0.653,0.196 1.131,0.794 1.131,1.51 0,0.572 -0.306,1.069 -0.76,1.347 -0.24,0.147 -0.521,0.237 -0.823,0.237 -0.875,0 -1.584,-0.709 -1.584,-1.584 0,-0.874 0.709,-1.583 1.584,-1.583 0.158,0 0.308,0.03 0.452,0.073" /></g></g></g></g></svg>